<svg xmlns="http://www.w3.org/2000/svg" viewBox="0 0 200 200" width="200" height="200">
  <!-- Logo E-Learning + AI -->
  <defs>
    <style>
      .logo-color { fill: #2563eb; }
    </style>
  </defs>
  
  <!-- Base circular -->
  <circle cx="100" cy="100" r="90" class="logo-color" fill="none" stroke="#2563eb" stroke-width="2" opacity="0.1"/>
  
  <!-- Livro/Educação -->
  <path d="M60 70 L60 130 L90 125 L120 130 L120 70 L90 75 Z" class="logo-color" opacity="0.8"/>
  <line x1="60" y1="85" x2="120" y2="85" stroke="#2563eb" stroke-width="1" opacity="0.3"/>
  <line x1="60" y1="95" x2="120" y2="95" stroke="#2563eb" stroke-width="1" opacity="0.3"/>
  <line x1="60" y1="105" x2="120" y2="105" stroke="#2563eb" stroke-width="1" opacity="0.3"/>
  
  <!-- Rede Neural/IA -->
  <!-- Nós principais -->
  <circle cx="140" cy="80" r="4" class="logo-color"/>
  <circle cx="160" cy="70" r="4" class="logo-color"/>
  <circle cx="160" cy="90" r="4" class="logo-color"/>
  <circle cx="140" cy="110" r="4" class="logo-color"/>
  <circle cx="160" cy="120" r="4" class="logo-color"/>
  
  <!-- Conexões neurais -->
  <line x1="140" y1="80" x2="160" y2="70" stroke="#2563eb" stroke-width="1.5" opacity="0.6"/>
  <line x1="140" y1="80" x2="160" y2="90" stroke="#2563eb" stroke-width="1.5" opacity="0.6"/>
  <line x1="140" y1="110" x2="160" y2="90" stroke="#2563eb" stroke-width="1.5" opacity="0.6"/>
  <line x1="140" y1="110" x2="160" y2="120" stroke="#2563eb" stroke-width="1.5" opacity="0.6"/>
  <line x1="160" y1="70" x2="160" y2="90" stroke="#2563eb" stroke-width="1" opacity="0.4"/>
  <line x1="160" y1="90" x2="160" y2="120" stroke="#2563eb" stroke-width="1" opacity="0.4"/>
  
  <!-- Conexão entre educação e IA -->
  <path d="M120 95 Q130 90 140 95" stroke="#2563eb" stroke-width="2" fill="none" opacity="0.7"/>
  
  <!-- Elementos de circuito/tecnologia -->
  <rect x="45" y="140" width="8" height="8" class="logo-color" opacity="0.5"/>
  <rect x="65" y="145" width="6" height="6" class="logo-color" opacity="0.5"/>
  <rect x="85" y="142" width="7" height="7" class="logo-color" opacity="0.5"/>
  
  <!-- Linhas de conexão tecnológica -->
  <line x1="53" y1="140" x2="65" y2="148" stroke="#2563eb" stroke-width="1" opacity="0.4"/>
  <line x1="71" y1="148" x2="85" y2="145" stroke="#2563eb" stroke-width="1" opacity="0.4"/>
  
  <!-- Símbolo de graduação/conhecimento -->
  <path d="M70 50 L90 45 L110 50 L90 55 Z" class="logo-color" opacity="0.6"/>
  <line x1="90" y1="55" x2="90" y2="65" stroke="#2563eb" stroke-width="2" opacity="0.6"/>
  <path d="M88 65 L90 67 L92 65" stroke="#2563eb" stroke-width="1.5" fill="none" opacity="0.6"/>
</svg>